<svg id="cart" xmlns="http://www.w3.org/2000/svg" width="16.341" height="16" viewBox="0 0 16.341 16">
  <path id="Vector" d="M3.193,14.767A1.237,1.237,0,1,1,4.434,16,1.24,1.24,0,0,1,3.193,14.767Zm9.184,0A1.237,1.237,0,1,1,13.618,16,1.24,1.24,0,0,1,12.377,14.767Z" fill="#fff" fill-rule="evenodd" opacity="0.4"/>
  <path id="Vector_2" d="M14.851,3.143A1.389,1.389,0,0,1,16,3.69a1.737,1.737,0,0,1,.31,1.4l-.776,5.356a2.083,2.083,0,0,1-2.066,1.788H4.564a2.081,2.081,0,0,1-2.074-1.91l-.751-8.9L.507,1.215a.615.615,0,0,1-.5-.7A.624.624,0,0,1,.719.007L2.666.3a.616.616,0,0,1,.506.555l.155,1.829a.5.5,0,0,0,.5.458ZM9.9,7.387h2.261a.612.612,0,0,0,0-1.225H9.9a.612.612,0,0,0,0,1.225Z" fill="#fff" fill-rule="evenodd"/>
</svg>
