<svg xmlns="http://www.w3.org/2000/svg" width="12.35" height="13" viewBox="0 0 12.35 13">
  <g id="home" transform="translate(28 -15)">
    <g id="home_2" transform="translate(-27 17)">
      <g id="home_3" transform="translate(-1 -2)">
        <path id="Vector" d="M4.313,12.2V10.215A.922.922,0,0,1,5.238,9.3H7.107a.929.929,0,0,1,.654.269.916.916,0,0,1,.271.65V12.2a.79.79,0,0,0,.231.564A.8.8,0,0,0,8.829,13H10.1a2.249,2.249,0,0,0,1.588-.649,2.215,2.215,0,0,0,.658-1.575V5.113a1.607,1.607,0,0,0-.582-1.236L7.432.439A2.014,2.014,0,0,0,4.865.485L.629,3.877A1.609,1.609,0,0,0,0,5.113V10.77A2.238,2.238,0,0,0,2.246,13H3.492a.8.8,0,0,0,.8-.792Z" fill="#fff"/>
      </g>
    </g>
  </g>
</svg>
