<svg id="notification" xmlns="http://www.w3.org/2000/svg" width="13.6" height="16" viewBox="0 0 13.6 16">
  <path id="Vector" d="M13.016,7.716a3.107,3.107,0,0,1-.85-2.279V5.1a4.437,4.437,0,0,0-.957-3A5.633,5.633,0,0,0,6.835,0H6.765a5.657,5.657,0,0,0-4.3,2.01A4.5,4.5,0,0,0,1.434,5.1v.342a3.039,3.039,0,0,1-.85,2.279A2.69,2.69,0,0,0,0,9.564a2.887,2.887,0,0,0,.691,1.9,3.626,3.626,0,0,0,2.32,1.13,33.341,33.341,0,0,0,3.789.2c1.275,0,2.532-.09,3.789-.2a3.626,3.626,0,0,0,2.319-1.13,2.891,2.891,0,0,0,.691-1.9A2.69,2.69,0,0,0,13.016,7.716Z" fill="#fff"/>
  <path id="Vector_2" d="M8.407,13.783a20.479,20.479,0,0,0-3.237,0c-.342.079-.712.263-.712.666a1.241,1.241,0,0,0,.557.939h0a2.909,2.909,0,0,0,1.372.586,3.064,3.064,0,0,0,.806,0,2.91,2.91,0,0,0,1.371-.586h0a1.24,1.24,0,0,0,.557-.939C9.119,14.045,8.749,13.862,8.407,13.783Z" fill="#fff" opacity="0.4"/>
</svg>
