<svg id="star" xmlns="http://www.w3.org/2000/svg" width="74.566" height="11.121" viewBox="0 0 74.566 11.121">
  <path id="solid_star" data-name="solid star" d="M25.686.374,24.268,3.25l-3.173.463A.7.7,0,0,0,20.71,4.9l2.3,2.237-.543,3.16a.7.7,0,0,0,1.008.732l2.838-1.492,2.838,1.492a.7.7,0,0,0,1.008-.732l-.543-3.16,2.3-2.237a.7.7,0,0,0-.384-1.186L28.35,3.25,26.932.374A.7.7,0,0,0,25.686.374Z" transform="translate(-4.763 0.013)" fill="#feab07"/>
  <path id="solid_star-2" data-name="solid star" d="M25.686.374,24.268,3.25l-3.173.463A.7.7,0,0,0,20.71,4.9l2.3,2.237-.543,3.16a.7.7,0,0,0,1.008.732l2.838-1.492,2.838,1.492a.7.7,0,0,0,1.008-.732l-.543-3.16,2.3-2.237a.7.7,0,0,0-.384-1.186L28.35,3.25,26.932.374A.7.7,0,0,0,25.686.374Z" transform="translate(10.974 0.013)" fill="#feab07"/>
  <path id="solid_star-3" data-name="solid star" d="M25.686.374,24.268,3.25l-3.173.463A.7.7,0,0,0,20.71,4.9l2.3,2.237-.543,3.16a.7.7,0,0,0,1.008.732l2.838-1.492,2.838,1.492a.7.7,0,0,0,1.008-.732l-.543-3.16,2.3-2.237a.7.7,0,0,0-.384-1.186L28.35,3.25,26.932.374A.7.7,0,0,0,25.686.374Z" transform="translate(26.711 0.013)" fill="#feab07"/>
  <path id="solid_star-4" data-name="solid star" d="M25.686.374,24.268,3.25l-3.173.463A.7.7,0,0,0,20.71,4.9l2.3,2.237-.543,3.16a.7.7,0,0,0,1.008.732l2.838-1.492,2.838,1.492a.7.7,0,0,0,1.008-.732l-.543-3.16,2.3-2.237a.7.7,0,0,0-.384-1.186L28.35,3.25,26.932.374A.7.7,0,0,0,25.686.374Z" transform="translate(42.448 0.013)" fill="#feab07"/>
  <path id="solid_star-5" data-name="solid star" d="M25.686.374,24.268,3.25l-3.173.463A.7.7,0,0,0,20.71,4.9l2.3,2.237-.543,3.16a.7.7,0,0,0,1.008.732l2.838-1.492,2.838,1.492a.7.7,0,0,0,1.008-.732l-.543-3.16,2.3-2.237a.7.7,0,0,0-.384-1.186L28.35,3.25,26.932.374A.7.7,0,0,0,25.686.374Z" transform="translate(-20.5 0.013)" fill="#feab07"/>
</svg>
